HIERARCHY
ROOT Hips
{
	OFFSET 0.000000 0.000000 0.000000
	CHANNELS 6 Xposition Yposition Zposition Zrotation Yrotation Xrotation 
	JOINT LHipJoint
	{
		OFFSET 0.000000 0.000000 0.000000
		CHANNELS 3 Zrotation Yrotation Xrotation
		JOINT LeftUpLeg
		{
			OFFSET 1.363060 -1.794630 0.839290
			CHANNELS 3 Zrotation Yrotation Xrotation
			JOINT LeftLeg
			{
				OFFSET 2.448110 -6.726130 0.000000
				CHANNELS 3 Zrotation Yrotation Xrotation
				JOINT LeftFoot
				{
					OFFSET 2.562200 -7.039590 0.000000
					CHANNELS 3 Zrotation Yrotation Xrotation
					JOINT LeftToeBase
					{
						OFFSET 0.157640 -0.433110 2.322550
						CHANNELS 3 Zrotation Yrotation Xrotation
						End Site
						{
							OFFSET 0.000000 0.000000 0.000000
						}
					}
				}
			}
		}
	}
	JOINT RHipJoint
	{
		OFFSET 0.000000 0.000000 0.000000
		CHANNELS 3 Zrotation Yrotation Xrotation
		JOINT RightUpLeg
		{
			OFFSET -1.305520 -1.794630 0.839290
			CHANNELS 3 Zrotation Yrotation Xrotation
			JOINT RightLeg
			{
				OFFSET -2.542530 -6.985550 0.000000
				CHANNELS 3 Zrotation Yrotation Xrotation
				JOINT RightFoot
				{
					OFFSET -2.568260 -7.056230 0.000000
					CHANNELS 3 Zrotation Yrotation Xrotation
					JOINT RightToeBase
					{
						OFFSET -0.164730 -0.452590 2.363150
						CHANNELS 3 Zrotation Yrotation Xrotation
						End Site
						{
							OFFSET 0.000000 0.000000 0.000000
						}
					}
				}
			}
		}
	}
	JOINT LowerBack
	{
		OFFSET 0.000000 0.000000 0.000000
		CHANNELS 3 Zrotation Yrotation Xrotation
		JOINT Spine
		{
			OFFSET 0.028270 2.035590 -0.193380
			CHANNELS 3 Zrotation Yrotation Xrotation
			JOINT Spine1
			{
				OFFSET 0.056720 2.048850 -0.042750
				CHANNELS 3 Zrotation Yrotation Xrotation
				JOINT Neck
				{
					OFFSET 0.000000 0.000000 0.000000
					CHANNELS 3 Zrotation Yrotation Xrotation
					JOINT Neck1
					{
						OFFSET -0.054170 1.746240 0.172020
						CHANNELS 3 Zrotation Yrotation Xrotation
						JOINT Head
						{
							OFFSET 0.104070 1.761360 -0.123970
							CHANNELS 3 Zrotation Yrotation Xrotation
							End Site
							{
								OFFSET 0.000000 0.000000 0.000000
							}
						}
					}
				}
				JOINT LeftShoulder
				{
					OFFSET 0.000000 0.000000 0.000000
					CHANNELS 3 Zrotation Yrotation Xrotation
					JOINT LeftArm
					{
						OFFSET 3.362410 1.200890 -0.311210
						CHANNELS 3 Zrotation Yrotation Xrotation
						JOINT LeftForeArm
						{
							OFFSET 4.983000 -0.000000 -0.000000
							CHANNELS 3 Zrotation Yrotation Xrotation
							JOINT LeftHand
							{
								OFFSET 3.483560 -0.000000 -0.000000
								CHANNELS 3 Zrotation Yrotation Xrotation
								JOINT LeftFingerBase
								{
									OFFSET 0.000000 0.000000 0.000000
									CHANNELS 3 Zrotation Yrotation Xrotation
									JOINT LeftHandIndex1
									{
										OFFSET 0.715260 -0.000000 -0.000000
										CHANNELS 3 Zrotation Yrotation Xrotation
										End Site
										{
											OFFSET 0.000000 0.000000 0.000000
										}
									}
								}
								JOINT LThumb
								{
									OFFSET 0.000000 0.000000 0.000000
									CHANNELS 3 Zrotation Yrotation Xrotation
									End Site
									{
										OFFSET 0.000000 0.000000 0.000000
									}
								}
							}
						}
					}
				}
				JOINT RightShoulder
				{
					OFFSET 0.000000 0.000000 0.000000
					CHANNELS 3 Zrotation Yrotation Xrotation
					JOINT RightArm
					{
						OFFSET -3.136600 1.374050 -0.404650
						CHANNELS 3 Zrotation Yrotation Xrotation
						JOINT RightForeArm
						{
							OFFSET -5.241900 -0.000000 -0.000000
							CHANNELS 3 Zrotation Yrotation Xrotation
							JOINT RightHand
							{
								OFFSET -3.444170 -0.000000 -0.000000
								CHANNELS 3 Zrotation Yrotation Xrotation
								JOINT RightFingerBase
								{
									OFFSET 0.000000 0.000000 0.000000
									CHANNELS 3 Zrotation Yrotation Xrotation
									JOINT RightHandIndex1
									{
										OFFSET -0.622530 -0.000000 -0.000000
										CHANNELS 3 Zrotation Yrotation Xrotation
										End Site
										{
											OFFSET 0.000000 0.000000 0.000000
										}
									}
								}
								JOINT RThumb
								{
									OFFSET 0.000000 0.000000 0.000000
									CHANNELS 3 Zrotation Yrotation Xrotation
									End Site
									{
										OFFSET 0.000000 0.000000 0.000000
									}
								}
							}
						}
					}
				}
			}
		}
	}
}
MOTION
Frames: 5
Frame Time: 0.008333
9.829069 17.989579 26.571630 -178.148039 1.158593 -178.533437 1.115940 4.177310 2.003961 -20.656276 -23.567730 1.051473 -3.242684 6.072675 18.146689 -4.262081 15.439390 -9.742881 0.980000 -6.301500 -17.661800 -5.394299 -4.210517 0.710614 30.724098 18.103727 6.522888 3.583010 -3.663857 14.365074 5.797397 -25.427908 -17.395823 -0.059500 -1.573600 4.328500 3.383753 0.778450 2.332207 2.614020 1.266760 3.884772 -4.875572 0.374586 -11.827763 -7.504533 -2.922648 -16.884458 13.579604 -4.592126 18.226380 2.028700 -1.384200 6.096500 -1.801259 -9.993403 1.553424 -90.693905 9.551123 36.282956 25.037059 -23.896062 -5.962294 1.116304 0.476064 9.889043 5.927447 -18.760116 -1.641600 -7.125000 0.000000 0.000000 -15.057900 10.957200 12.367300 0.318999 10.792668 3.098076 88.127875 -11.402710 50.440000 -23.070655 25.882488 -6.757390 0.193935 -0.474947 7.534320 -49.622659 -68.018427 47.447900 7.125000 0.000000 0.000000 -173.790300 -14.416600 4.495100 
9.830458 17.975103 26.570008 -178.088211 0.480450 -178.904600 1.163729 4.239635 2.061782 -20.719194 -23.706660 1.382783 -3.211241 6.091605 18.250306 -4.213347 15.272005 -9.494221 1.063500 -6.556500 -18.407900 -5.385633 -4.244443 0.760633 30.983284 17.965310 6.913079 3.592103 -3.656000 14.455874 5.769478 -25.608759 -18.341632 -0.115200 -2.188300 6.026400 3.304321 0.651263 2.398567 2.893427 0.871835 4.359439 -4.796901 0.099841 -11.965371 -7.664228 -2.911057 -17.033809 13.600458 -4.547418 18.352986 2.066600 -1.360100 6.150100 -1.797039 -9.979730 1.537471 -90.843495 9.449515 36.108762 24.966378 -23.946152 -6.071405 1.237864 0.541509 9.766837 5.858041 -22.691083 -1.892900 -7.125000 0.000000 0.000000 -15.083400 7.077600 13.602200 0.296206 10.785320 3.051857 88.026645 -11.083911 49.289973 -22.956702 25.793104 -6.728542 0.381787 -0.473347 10.746013 -35.034388 -66.041694 32.860100 7.125000 0.000000 0.000000 -171.563800 -9.206200 7.056800 
9.831037 17.982167 26.576493 -178.034480 1.161429 -178.618263 1.167037 4.189370 2.016733 -20.618368 -23.527110 1.101936 -3.230965 6.092894 18.223838 -4.316966 15.593137 -9.790613 1.035600 -6.472400 -18.161400 -5.354009 -4.207770 0.731938 30.837765 18.165090 6.550102 3.582822 -3.685679 14.431668 5.727293 -25.313518 -17.754859 -0.087500 -1.907800 5.250800 3.167020 0.758933 2.398877 3.127543 1.235702 4.027663 -4.830987 0.364206 -11.903842 -7.715454 -2.901162 -17.011971 13.600219 -4.529588 18.396510 2.073900 -1.349700 6.158500 -1.853964 -9.976761 1.577997 -90.882204 9.406813 35.988943 24.909021 -23.997033 -6.190045 1.336782 0.596152 9.695571 5.648809 -26.440509 -2.043400 -7.125000 0.000000 0.000000 -15.253500 3.406600 14.865700 0.292160 10.803136 3.054428 88.052968 -10.919638 48.025475 -22.894401 25.707688 -6.656413 0.546862 -0.538936 14.240091 -22.361559 -62.277355 20.470200 7.125000 0.000000 0.000000 -169.302700 -3.663300 10.174000 
9.830922 17.990390 26.581357 -178.011609 1.640487 -178.333011 1.148620 4.132459 1.960140 -20.509655 -23.410997 0.803350 -3.241448 6.105147 18.218694 -4.359530 15.728327 -9.957296 0.963800 -6.250900 -17.514100 -5.344489 -4.170476 0.694461 30.717419 18.314289 6.207215 3.575350 -3.723369 14.446819 5.679581 -25.080235 -17.450918 -0.076700 -1.786100 4.914900 3.177469 0.951125 2.404775 3.077631 1.504773 3.623492 -4.848015 0.489475 -11.846652 -7.614973 -2.916207 -16.948148 13.512497 -4.556951 18.415316 2.033500 -1.363200 6.156700 -1.878300 -9.983792 1.651166 -90.856348 9.434127 35.916922 24.855071 -24.106185 -6.386441 1.437423 0.671288 9.502824 5.315582 -31.795092 -2.183400 -7.125000 0.000000 0.000000 -15.600900 -1.804900 16.708700 0.344018 10.830637 3.003025 88.250470 -10.703595 45.671224 -22.859662 25.505436 -6.283512 0.792622 -0.666042 21.367378 -4.705780 -50.540732 4.383600 7.125000 0.000000 0.000000 -15.814000 12.688900 -167.551300 
9.831153 17.987726 26.577073 -178.068068 0.940809 -178.469959 1.140372 4.156563 1.973040 -20.547741 -23.579621 0.944511 -3.227681 6.093220 18.194022 -4.269603 15.429490 -9.547989 1.031600 -6.460600 -18.126800 -5.361109 -4.191129 0.710127 30.792064 18.075634 6.354396 3.582500 -3.718530 14.499245 5.700281 -25.309606 -18.063374 -0.112100 -2.158900 5.944900 3.257112 0.716442 2.375339 2.899435 1.185121 3.754073 -4.795634 0.339560 -11.860837 -7.556605 -2.915751 -16.957116 13.481208 -4.559912 18.402833 2.018400 -1.366300 6.152800 -1.829594 -9.976187 1.669959 -90.862111 9.425123 35.818750 24.805098 -24.225388 -6.577293 1.487396 0.737846 9.315789 4.977048 -36.804579 -2.245300 -7.125000 0.000000 0.000000 -16.030500 -6.648800 18.478000 0.356350 10.815948 2.981419 88.290286 -10.720692 45.679502 -22.834537 25.483272 -6.275764 0.793377 -0.667579 21.712015 -4.210188 -50.587902 4.008000 7.125000 0.000000 0.000000 -16.031000 12.733100 -167.381200 
